<svg xmlns="http://www.w3.org/2000/svg" xmlns:xlink="http://www.w3.org/1999/xlink" width="150" zoomAndPan="magnify" viewBox="0 0 112.5 30.000001" height="40" preserveAspectRatio="xMidYMid meet" version="1.0"><defs><g/></defs><g fill="#f048ff" fill-opacity="1"><g transform="translate(11.117242, 18.07492)"><g><path d="M 11.058594 -0.210938 L 5.703125 -13.980469 C 5.652344 -14.121094 5.40625 -14.121094 5.351562 -13.980469 L 0.0195312 -0.210938 C -0.0351562 -0.105469 0.0351562 0 0.195312 0 L 2.605469 0 C 2.675781 0 2.765625 -0.0351562 2.78125 -0.105469 L 5.527344 -7.957031 L 8.3125 -0.105469 C 8.328125 -0.0351562 8.417969 0 8.46875 0 L 10.898438 0 C 11.023438 0 11.109375 -0.105469 11.058594 -0.210938 Z M 11.058594 -0.210938 "/></g></g></g><g fill="#f048ff" fill-opacity="1"><g transform="translate(21.110272, 27.894629)"><g><path d="M 9.078125 -14.167969 L 6.789062 -7.792969 L 3.394531 -17.28125 C 3.375 -17.367188 3.285156 -17.414062 3.179688 -17.414062 L 0.21875 -17.414062 C 0.0429688 -17.414062 -0.0429688 -17.28125 0.0234375 -17.152344 L 6.574219 -0.109375 C 6.660156 0.0429688 6.921875 0.0429688 6.988281 -0.109375 L 12.429688 -14.167969 Z M 9.078125 -14.167969 "/></g></g></g><g fill="#ffffff" fill-opacity="1"><g transform="translate(26.270463, 12.153938)"><g><path d="M 5.359375 -4.984375 L 5.359375 0 L 4.21875 0 L 4.21875 -2.984375 L 3.359375 -0.953125 L 2.359375 -0.953125 L 1.53125 -2.984375 L 1.53125 0 L 0.375 0 L 0.375 -4.984375 L 1.875 -4.984375 L 2.890625 -2.46875 L 3.921875 -4.984375 Z M 5.359375 -4.984375 "/></g></g></g><g fill="#ffffff" fill-opacity="1"><g transform="translate(32.416932, 12.153938)"><g><path d="M 3.8125 -1.15625 L 3.8125 0 L 0.375 0 L 0.375 -4.984375 L 3.734375 -4.984375 L 3.734375 -3.859375 L 1.609375 -3.859375 L 1.609375 -3.046875 L 3.4375 -3.046875 L 3.4375 -2.015625 L 1.609375 -2.015625 L 1.609375 -1.15625 Z M 3.8125 -1.15625 "/></g></g></g><g fill="#ffffff" fill-opacity="1"><g transform="translate(36.826559, 12.153938)"><g><path d="M 4.046875 -4.984375 L 4.046875 -3.859375 L 2.6875 -3.859375 L 2.6875 0 L 1.453125 0 L 1.453125 -3.859375 L 0.09375 -3.859375 L 0.09375 -4.984375 Z M 4.046875 -4.984375 "/></g></g></g><g fill="#ffffff" fill-opacity="1"><g transform="translate(41.363076, 12.153938)"><g><path d="M 1.265625 0 L -0.03125 0 L 1.8125 -4.984375 L 3.09375 -4.984375 L 4.890625 0 L 3.609375 0 L 3.34375 -0.828125 L 1.53125 -0.828125 Z M 2.421875 -3.75 C 2.378906 -3.601562 2.332031 -3.445312 2.28125 -3.28125 C 2.238281 -3.113281 2.160156 -2.84375 2.046875 -2.46875 L 1.828125 -1.8125 L 3.03125 -1.8125 L 2.828125 -2.46875 C 2.753906 -2.664062 2.679688 -2.875 2.609375 -3.09375 C 2.546875 -3.320312 2.484375 -3.539062 2.421875 -3.75 Z M 2.421875 -3.75 "/></g></g></g><g fill="#ffffff" fill-opacity="1"><g transform="translate(46.64509, 12.153938)"><g><path d="M 1.703125 0 L -0.015625 -4.984375 L 1.359375 -4.984375 L 2.09375 -2.515625 C 2.144531 -2.347656 2.203125 -2.128906 2.265625 -1.859375 C 2.335938 -1.585938 2.40625 -1.316406 2.46875 -1.046875 C 2.582031 -1.523438 2.664062 -1.863281 2.71875 -2.0625 C 2.769531 -2.257812 2.804688 -2.410156 2.828125 -2.515625 L 3.5625 -4.984375 L 4.890625 -4.984375 L 3.1875 0 Z M 1.703125 0 "/></g></g></g><g fill="#ffffff" fill-opacity="1"><g transform="translate(51.927104, 12.153938)"><g><path d="M 3.8125 -1.15625 L 3.8125 0 L 0.375 0 L 0.375 -4.984375 L 3.734375 -4.984375 L 3.734375 -3.859375 L 1.609375 -3.859375 L 1.609375 -3.046875 L 3.4375 -3.046875 L 3.4375 -2.015625 L 1.609375 -2.015625 L 1.609375 -1.15625 Z M 3.8125 -1.15625 "/></g></g></g><g fill="#ffffff" fill-opacity="1"><g transform="translate(56.33673, 12.153938)"><g><path d="M 1.609375 -1.609375 L 1.609375 0 L 0.375 0 L 0.375 -4.984375 L 2.203125 -4.984375 C 2.960938 -4.984375 3.503906 -4.851562 3.828125 -4.59375 C 4.148438 -4.332031 4.3125 -3.898438 4.3125 -3.296875 C 4.3125 -2.890625 4.222656 -2.554688 4.046875 -2.296875 C 3.878906 -2.035156 3.625 -1.847656 3.28125 -1.734375 L 4.5 0 L 3.015625 0 L 1.984375 -1.609375 Z M 3.078125 -3.296875 C 3.078125 -3.503906 3.007812 -3.648438 2.875 -3.734375 C 2.75 -3.816406 2.523438 -3.859375 2.203125 -3.859375 L 1.609375 -3.859375 L 1.609375 -2.59375 L 2.203125 -2.59375 C 2.523438 -2.59375 2.75 -2.644531 2.875 -2.75 C 3.007812 -2.851562 3.078125 -3.035156 3.078125 -3.296875 Z M 3.078125 -3.296875 "/></g></g></g><g fill="#ffffff" fill-opacity="1"><g transform="translate(61.317374, 12.153938)"><g><path d="M 2.265625 -1.859375 L 1.265625 -2.09375 C 0.859375 -2.1875 0.582031 -2.332031 0.4375 -2.53125 C 0.289062 -2.726562 0.21875 -3.007812 0.21875 -3.375 C 0.21875 -3.945312 0.367188 -4.367188 0.671875 -4.640625 C 0.984375 -4.921875 1.457031 -5.0625 2.09375 -5.0625 C 2.363281 -5.0625 2.597656 -5.050781 2.796875 -5.03125 C 3.003906 -5.007812 3.195312 -4.96875 3.375 -4.90625 L 3.375 -3.8125 C 2.96875 -3.875 2.6875 -3.910156 2.53125 -3.921875 C 2.382812 -3.929688 2.234375 -3.9375 2.078125 -3.9375 C 1.847656 -3.9375 1.679688 -3.898438 1.578125 -3.828125 C 1.484375 -3.753906 1.4375 -3.628906 1.4375 -3.453125 C 1.4375 -3.367188 1.453125 -3.304688 1.484375 -3.265625 C 1.515625 -3.222656 1.578125 -3.191406 1.671875 -3.171875 L 2.625 -2.9375 C 2.894531 -2.875 3.085938 -2.8125 3.203125 -2.75 C 3.328125 -2.695312 3.429688 -2.625 3.515625 -2.53125 C 3.597656 -2.425781 3.65625 -2.289062 3.6875 -2.125 C 3.726562 -1.96875 3.75 -1.78125 3.75 -1.5625 C 3.75 -0.976562 3.59375 -0.554688 3.28125 -0.296875 C 2.976562 -0.046875 2.503906 0.078125 1.859375 0.078125 C 1.535156 0.078125 1.222656 0.0546875 0.921875 0.015625 C 0.628906 -0.0234375 0.398438 -0.0703125 0.234375 -0.125 L 0.234375 -1.296875 C 0.453125 -1.222656 0.703125 -1.164062 0.984375 -1.125 C 1.273438 -1.09375 1.566406 -1.078125 1.859375 -1.078125 C 2.097656 -1.078125 2.257812 -1.101562 2.34375 -1.15625 C 2.4375 -1.21875 2.484375 -1.335938 2.484375 -1.515625 C 2.484375 -1.617188 2.46875 -1.695312 2.4375 -1.75 C 2.40625 -1.800781 2.347656 -1.835938 2.265625 -1.859375 Z M 2.265625 -1.859375 "/></g></g></g><g fill="#ffffff" fill-opacity="1"><g transform="translate(65.600103, 12.153938)"><g><path d="M 3.8125 -1.15625 L 3.8125 0 L 0.375 0 L 0.375 -4.984375 L 3.734375 -4.984375 L 3.734375 -3.859375 L 1.609375 -3.859375 L 1.609375 -3.046875 L 3.4375 -3.046875 L 3.4375 -2.015625 L 1.609375 -2.015625 L 1.609375 -1.15625 Z M 3.8125 -1.15625 "/></g></g></g><g fill="#ffffff" fill-opacity="1"><g transform="translate(70.009729, 12.153938)"><g/></g></g><g fill="#ffffff" fill-opacity="1"><g transform="translate(71.588054, 12.153938)"><g><path d="M 1.265625 0 L -0.03125 0 L 1.8125 -4.984375 L 3.09375 -4.984375 L 4.890625 0 L 3.609375 0 L 3.34375 -0.828125 L 1.53125 -0.828125 Z M 2.421875 -3.75 C 2.378906 -3.601562 2.332031 -3.445312 2.28125 -3.28125 C 2.238281 -3.113281 2.160156 -2.84375 2.046875 -2.46875 L 1.828125 -1.8125 L 3.03125 -1.8125 L 2.828125 -2.46875 C 2.753906 -2.664062 2.679688 -2.875 2.609375 -3.09375 C 2.546875 -3.320312 2.484375 -3.539062 2.421875 -3.75 Z M 2.421875 -3.75 "/></g></g></g><g fill="#ffffff" fill-opacity="1"><g transform="translate(76.870068, 12.153938)"><g><path d="M 3.5625 -1.15625 L 3.5625 0 L 0.375 0 L 0.375 -4.984375 L 1.609375 -4.984375 L 1.609375 -1.15625 Z M 3.5625 -1.15625 "/></g></g></g><g fill="#ffffff" fill-opacity="1"><g transform="translate(80.930737, 12.153938)"><g><path d="M 3.5625 -1.15625 L 3.5625 0 L 0.375 0 L 0.375 -4.984375 L 1.609375 -4.984375 L 1.609375 -1.15625 Z M 3.5625 -1.15625 "/></g></g></g><g fill="#ffffff" fill-opacity="1"><g transform="translate(84.991406, 12.153938)"><g><path d="M 1.609375 -4.984375 L 1.609375 0 L 0.375 0 L 0.375 -4.984375 Z M 1.609375 -4.984375 "/></g></g></g><g fill="#ffffff" fill-opacity="1"><g transform="translate(87.386604, 12.153938)"><g><path d="M 1.265625 0 L -0.03125 0 L 1.8125 -4.984375 L 3.09375 -4.984375 L 4.890625 0 L 3.609375 0 L 3.34375 -0.828125 L 1.53125 -0.828125 Z M 2.421875 -3.75 C 2.378906 -3.601562 2.332031 -3.445312 2.28125 -3.28125 C 2.238281 -3.113281 2.160156 -2.84375 2.046875 -2.46875 L 1.828125 -1.8125 L 3.03125 -1.8125 L 2.828125 -2.46875 C 2.753906 -2.664062 2.679688 -2.875 2.609375 -3.09375 C 2.546875 -3.320312 2.484375 -3.539062 2.421875 -3.75 Z M 2.421875 -3.75 "/></g></g></g><g fill="#ffffff" fill-opacity="1"><g transform="translate(92.668618, 12.153938)"><g><path d="M 4.671875 -4.984375 L 4.671875 0 L 3.5 0 L 1.53125 -2.875 L 1.53125 0 L 0.375 0 L 0.375 -4.984375 L 1.546875 -4.984375 L 3.53125 -2 L 3.53125 -4.984375 Z M 4.671875 -4.984375 "/></g></g></g><g fill="#ffffff" fill-opacity="1"><g transform="translate(98.12511, 12.153938)"><g><path d="M 2.546875 -1.078125 C 2.753906 -1.078125 2.984375 -1.097656 3.234375 -1.140625 C 3.484375 -1.179688 3.703125 -1.238281 3.890625 -1.3125 L 3.890625 -0.234375 C 3.597656 -0.117188 3.335938 -0.0390625 3.109375 0 C 2.878906 0.0507812 2.632812 0.078125 2.375 0.078125 C 1.914062 0.078125 1.546875 0.0234375 1.265625 -0.078125 C 0.992188 -0.179688 0.78125 -0.351562 0.625 -0.59375 C 0.476562 -0.789062 0.375 -1.046875 0.3125 -1.359375 C 0.25 -1.671875 0.21875 -2.050781 0.21875 -2.5 C 0.21875 -3.382812 0.40625 -4.03125 0.78125 -4.4375 C 1.164062 -4.851562 1.78125 -5.0625 2.625 -5.0625 C 2.863281 -5.0625 3.078125 -5.054688 3.265625 -5.046875 C 3.460938 -5.035156 3.632812 -5.015625 3.78125 -4.984375 L 3.78125 -3.90625 C 3.613281 -3.914062 3.429688 -3.921875 3.234375 -3.921875 C 3.046875 -3.929688 2.84375 -3.9375 2.625 -3.9375 C 2.332031 -3.9375 2.113281 -3.910156 1.96875 -3.859375 C 1.832031 -3.804688 1.726562 -3.710938 1.65625 -3.578125 C 1.59375 -3.460938 1.546875 -3.316406 1.515625 -3.140625 C 1.492188 -2.972656 1.484375 -2.757812 1.484375 -2.5 C 1.484375 -2.25 1.492188 -2.039062 1.515625 -1.875 C 1.546875 -1.707031 1.585938 -1.566406 1.640625 -1.453125 C 1.703125 -1.316406 1.800781 -1.21875 1.9375 -1.15625 C 2.070312 -1.101562 2.273438 -1.078125 2.546875 -1.078125 Z M 2.546875 -1.078125 "/></g></g></g><g fill="#ffffff" fill-opacity="1"><g transform="translate(102.558527, 12.153938)"><g><path d="M 3.8125 -1.15625 L 3.8125 0 L 0.375 0 L 0.375 -4.984375 L 3.734375 -4.984375 L 3.734375 -3.859375 L 1.609375 -3.859375 L 1.609375 -3.046875 L 3.4375 -3.046875 L 3.4375 -2.015625 L 1.609375 -2.015625 L 1.609375 -1.15625 Z M 3.8125 -1.15625 "/></g></g></g><g fill="#f048ff" fill-opacity="1"><g transform="translate(2.872759, 18.07492)"><g><path d="M 11.058594 -0.210938 L 5.703125 -13.980469 C 5.652344 -14.121094 5.40625 -14.121094 5.351562 -13.980469 L 0.0195312 -0.210938 C -0.0351562 -0.105469 0.0351562 0 0.195312 0 L 2.605469 0 C 2.675781 0 2.765625 -0.0351562 2.78125 -0.105469 L 5.527344 -7.957031 L 8.3125 -0.105469 C 8.328125 -0.0351562 8.417969 0 8.46875 0 L 10.898438 0 C 11.023438 0 11.109375 -0.105469 11.058594 -0.210938 Z M 11.058594 -0.210938 "/></g></g></g></svg>