<svg xmlns="http://www.w3.org/2000/svg" xmlns:xlink="http://www.w3.org/1999/xlink" width="150" zoomAndPan="magnify" viewBox="0 0 112.5 30.000001" height="40" preserveAspectRatio="xMidYMid meet" version="1.0"><defs><g/></defs><g fill="#000000" fill-opacity="1"><g transform="translate(12.651283, 16.592544)"><g><path d="M 12.84375 -0.246094 L 6.625 -16.238281 C 6.5625 -16.398438 6.277344 -16.398438 6.214844 -16.238281 L 0.0195312 -0.246094 C -0.0390625 -0.121094 0.0390625 0 0.226562 0 L 3.027344 0 C 3.109375 0 3.210938 -0.0390625 3.230469 -0.121094 L 6.421875 -9.242188 L 9.652344 -0.121094 C 9.671875 -0.0390625 9.773438 0 9.835938 0 L 12.65625 0 C 12.800781 0 12.902344 -0.121094 12.84375 -0.246094 Z M 12.84375 -0.246094 "/></g></g></g><g fill="#000000" fill-opacity="1"><g transform="translate(24.265448, 27.354076)"><g><path d="M 10.539062 -16.453125 L 7.886719 -9.046875 L 3.941406 -20.070312 C 3.917969 -20.167969 3.816406 -20.21875 3.691406 -20.21875 L 0.253906 -20.21875 C 0.0507812 -20.21875 -0.0507812 -20.070312 0.0234375 -19.917969 L 7.632812 -0.125 C 7.734375 0.0507812 8.039062 0.0507812 8.113281 -0.125 L 14.433594 -16.453125 Z M 10.539062 -16.453125 "/></g></g></g><g fill="#000000" fill-opacity="1"><g transform="translate(3.076208, 16.592544)"><g><path d="M 12.84375 -0.246094 L 6.625 -16.238281 C 6.5625 -16.398438 6.277344 -16.398438 6.214844 -16.238281 L 0.0195312 -0.246094 C -0.0390625 -0.121094 0.0390625 0 0.226562 0 L 3.027344 0 C 3.109375 0 3.210938 -0.0390625 3.230469 -0.121094 L 6.421875 -9.242188 L 9.652344 -0.121094 C 9.671875 -0.0390625 9.773438 0 9.835938 0 L 12.65625 0 C 12.800781 0 12.902344 -0.121094 12.84375 -0.246094 Z M 12.84375 -0.246094 "/></g></g></g></svg>