<svg xmlns="http://www.w3.org/2000/svg" xmlns:xlink="http://www.w3.org/1999/xlink" width="150" zoomAndPan="magnify" viewBox="0 0 112.5 30.000001" height="40" preserveAspectRatio="xMidYMid meet" version="1.0"><defs><g/></defs><g fill="#ffffff" fill-opacity="1"><g transform="translate(12.655953, 17.045196)"><g><path d="M 12.839844 -0.246094 L 6.625 -16.234375 C 6.5625 -16.398438 6.277344 -16.398438 6.214844 -16.234375 L 0.0195312 -0.246094 C -0.0390625 -0.121094 0.0390625 0 0.226562 0 L 3.027344 0 C 3.109375 0 3.210938 -0.0390625 3.230469 -0.121094 L 6.421875 -9.242188 L 9.652344 -0.121094 C 9.671875 -0.0390625 9.773438 0 9.835938 0 L 12.65625 0 C 12.800781 0 12.902344 -0.121094 12.839844 -0.246094 Z M 12.839844 -0.246094 "/></g></g></g><g fill="#ffffff" fill-opacity="1"><g transform="translate(24.262076, 28.493775)"><g><path d="M 10.542969 -16.457031 L 7.886719 -9.050781 L 3.945312 -20.070312 C 3.917969 -20.171875 3.816406 -20.222656 3.691406 -20.222656 L 0.253906 -20.222656 C 0.0507812 -20.222656 -0.0507812 -20.070312 0.0234375 -19.921875 L 7.632812 -0.125 C 7.734375 0.0507812 8.039062 0.0507812 8.113281 -0.125 L 14.433594 -16.457031 Z M 10.542969 -16.457031 "/></g></g></g><g fill="#ffffff" fill-opacity="1"><g transform="translate(3.080879, 17.045196)"><g><path d="M 12.839844 -0.246094 L 6.625 -16.234375 C 6.5625 -16.398438 6.277344 -16.398438 6.214844 -16.234375 L 0.0195312 -0.246094 C -0.0390625 -0.121094 0.0390625 0 0.226562 0 L 3.027344 0 C 3.109375 0 3.210938 -0.0390625 3.230469 -0.121094 L 6.421875 -9.242188 L 9.652344 -0.121094 C 9.671875 -0.0390625 9.773438 0 9.835938 0 L 12.65625 0 C 12.800781 0 12.902344 -0.121094 12.839844 -0.246094 Z M 12.839844 -0.246094 "/></g></g></g></svg>