<svg xmlns="http://www.w3.org/2000/svg" xmlns:xlink="http://www.w3.org/1999/xlink" width="500" zoomAndPan="magnify" viewBox="0 0 375 374.999991" height="500" preserveAspectRatio="xMidYMid meet" version="1.0"><defs><g/></defs><g fill="#ffffff" fill-opacity="1"><g transform="translate(119.211837, 211.297832)"><g><path d="M 99.34375 -1.898438 L 51.253906 -125.605469 C 50.78125 -126.871094 48.566406 -126.871094 48.089844 -125.605469 L 0.15625 -1.898438 C -0.316406 -0.949219 0.316406 0 1.738281 0 L 23.414062 0 C 24.046875 0 24.835938 -0.316406 24.996094 -0.949219 L 49.671875 -71.503906 L 74.667969 -0.949219 C 74.824219 -0.316406 75.617188 0 76.089844 0 L 97.921875 0 C 99.027344 0 99.820312 -0.949219 99.34375 -1.898438 Z M 99.34375 -1.898438 "/></g></g></g><g fill="#ffffff" fill-opacity="1"><g transform="translate(208.998186, 299.865374)"><g><path d="M 81.550781 -127.3125 L 61.015625 -70.011719 L 30.507812 -155.277344 C 30.3125 -156.058594 29.53125 -156.449219 28.550781 -156.449219 L 1.957031 -156.449219 C 0.390625 -156.449219 -0.390625 -155.277344 0.195312 -154.105469 L 59.058594 -0.976562 C 59.84375 0.390625 62.1875 0.390625 62.777344 -0.976562 L 111.667969 -127.3125 Z M 81.550781 -127.3125 "/></g></g></g><g fill="#ffffff" fill-opacity="1"><g transform="translate(45.554778, 232.653205)"><g><path d="M 12.046875 -11.171875 L 12.046875 0 L 9.453125 0 L 9.453125 -6.703125 L 7.546875 -2.140625 L 5.3125 -2.140625 L 3.4375 -6.703125 L 3.4375 0 L 0.859375 0 L 0.859375 -11.171875 L 4.21875 -11.171875 L 6.484375 -5.546875 L 8.796875 -11.171875 Z M 12.046875 -11.171875 "/></g></g></g><g fill="#ffffff" fill-opacity="1"><g transform="translate(68.165463, 232.653205)"><g><path d="M 8.546875 -2.578125 L 8.546875 0 L 0.859375 0 L 0.859375 -11.171875 L 8.390625 -11.171875 L 8.390625 -8.671875 L 3.609375 -8.671875 L 3.609375 -6.828125 L 7.734375 -6.828125 L 7.734375 -4.5 L 3.609375 -4.5 L 3.609375 -2.578125 Z M 8.546875 -2.578125 "/></g></g></g><g fill="#ffffff" fill-opacity="1"><g transform="translate(86.874476, 232.653205)"><g><path d="M 9.0625 -11.171875 L 9.0625 -8.671875 L 6.015625 -8.671875 L 6.015625 0 L 3.265625 0 L 3.265625 -8.671875 L 0.21875 -8.671875 L 0.21875 -11.171875 Z M 9.0625 -11.171875 "/></g></g></g><g fill="#ffffff" fill-opacity="1"><g transform="translate(105.868539, 232.653205)"><g><path d="M 2.84375 0 L -0.046875 0 L 4.078125 -11.171875 L 6.953125 -11.171875 L 10.96875 0 L 8.09375 0 L 7.5 -1.875 L 3.4375 -1.875 Z M 5.453125 -8.421875 C 5.359375 -8.085938 5.253906 -7.734375 5.140625 -7.359375 C 5.023438 -6.984375 4.835938 -6.378906 4.578125 -5.546875 L 4.109375 -4.0625 L 6.796875 -4.0625 L 6.34375 -5.546875 C 6.1875 -5.992188 6.03125 -6.46875 5.875 -6.96875 C 5.71875 -7.476562 5.578125 -7.960938 5.453125 -8.421875 Z M 5.453125 -8.421875 "/></g></g></g><g fill="#ffffff" fill-opacity="1"><g transform="translate(126.537298, 232.653205)"><g><path d="M 3.828125 0 L -0.03125 -11.171875 L 3.046875 -11.171875 L 4.703125 -5.640625 C 4.804688 -5.273438 4.9375 -4.785156 5.09375 -4.171875 C 5.25 -3.566406 5.398438 -2.957031 5.546875 -2.34375 C 5.804688 -3.425781 5.988281 -4.1875 6.09375 -4.625 C 6.207031 -5.070312 6.296875 -5.40625 6.359375 -5.625 L 8 -11.171875 L 10.984375 -11.171875 L 7.140625 0 Z M 3.828125 0 "/></g></g></g><g fill="#ffffff" fill-opacity="1"><g transform="translate(147.206057, 232.653205)"><g><path d="M 8.546875 -2.578125 L 8.546875 0 L 0.859375 0 L 0.859375 -11.171875 L 8.390625 -11.171875 L 8.390625 -8.671875 L 3.609375 -8.671875 L 3.609375 -6.828125 L 7.734375 -6.828125 L 7.734375 -4.5 L 3.609375 -4.5 L 3.609375 -2.578125 Z M 8.546875 -2.578125 "/></g></g></g><g fill="#ffffff" fill-opacity="1"><g transform="translate(165.915069, 232.653205)"><g><path d="M 3.609375 -3.59375 L 3.609375 0 L 0.859375 0 L 0.859375 -11.171875 L 4.9375 -11.171875 C 6.65625 -11.171875 7.875 -10.878906 8.59375 -10.296875 C 9.320312 -9.710938 9.6875 -8.742188 9.6875 -7.390625 C 9.6875 -6.472656 9.492188 -5.726562 9.109375 -5.15625 C 8.722656 -4.582031 8.140625 -4.164062 7.359375 -3.90625 L 10.078125 0 L 6.765625 0 L 4.453125 -3.59375 Z M 6.890625 -7.390625 C 6.890625 -7.867188 6.742188 -8.203125 6.453125 -8.390625 C 6.171875 -8.578125 5.664062 -8.671875 4.9375 -8.671875 L 3.609375 -8.671875 L 3.609375 -5.828125 L 4.9375 -5.828125 C 5.664062 -5.828125 6.171875 -5.941406 6.453125 -6.171875 C 6.742188 -6.398438 6.890625 -6.804688 6.890625 -7.390625 Z M 6.890625 -7.390625 "/></g></g></g><g fill="#ffffff" fill-opacity="1"><g transform="translate(185.906825, 232.653205)"><g><path d="M 5.09375 -4.171875 L 2.828125 -4.703125 C 1.929688 -4.910156 1.316406 -5.234375 0.984375 -5.671875 C 0.660156 -6.117188 0.5 -6.75 0.5 -7.5625 C 0.5 -8.863281 0.835938 -9.816406 1.515625 -10.421875 C 2.203125 -11.035156 3.265625 -11.34375 4.703125 -11.34375 C 5.296875 -11.34375 5.820312 -11.316406 6.28125 -11.265625 C 6.75 -11.222656 7.175781 -11.144531 7.5625 -11.03125 L 7.5625 -8.546875 C 6.664062 -8.703125 6.046875 -8.789062 5.703125 -8.8125 C 5.367188 -8.84375 5.019531 -8.859375 4.65625 -8.859375 C 4.15625 -8.859375 3.789062 -8.773438 3.5625 -8.609375 C 3.332031 -8.441406 3.21875 -8.160156 3.21875 -7.765625 C 3.21875 -7.578125 3.253906 -7.429688 3.328125 -7.328125 C 3.398438 -7.222656 3.535156 -7.148438 3.734375 -7.109375 L 5.875 -6.609375 C 6.488281 -6.460938 6.929688 -6.320312 7.203125 -6.1875 C 7.484375 -6.050781 7.707031 -5.878906 7.875 -5.671875 C 8.0625 -5.441406 8.195312 -5.144531 8.28125 -4.78125 C 8.375 -4.425781 8.421875 -3.992188 8.421875 -3.484375 C 8.421875 -2.191406 8.078125 -1.257812 7.390625 -0.6875 C 6.703125 -0.113281 5.632812 0.171875 4.1875 0.171875 C 3.445312 0.171875 2.742188 0.125 2.078125 0.03125 C 1.421875 -0.0507812 0.90625 -0.15625 0.53125 -0.28125 L 0.53125 -2.90625 C 1.007812 -2.75 1.570312 -2.625 2.21875 -2.53125 C 2.875 -2.445312 3.53125 -2.40625 4.1875 -2.40625 C 4.707031 -2.40625 5.066406 -2.46875 5.265625 -2.59375 C 5.472656 -2.726562 5.578125 -2.992188 5.578125 -3.390625 C 5.578125 -3.640625 5.539062 -3.816406 5.46875 -3.921875 C 5.40625 -4.035156 5.28125 -4.117188 5.09375 -4.171875 Z M 5.09375 -4.171875 "/></g></g></g><g fill="#ffffff" fill-opacity="1"><g transform="translate(204.330774, 232.653205)"><g><path d="M 8.546875 -2.578125 L 8.546875 0 L 0.859375 0 L 0.859375 -11.171875 L 8.390625 -11.171875 L 8.390625 -8.671875 L 3.609375 -8.671875 L 3.609375 -6.828125 L 7.734375 -6.828125 L 7.734375 -4.5 L 3.609375 -4.5 L 3.609375 -2.578125 Z M 8.546875 -2.578125 "/></g></g></g><g fill="#ffffff" fill-opacity="1"><g transform="translate(253.698844, 166.532317)"><g><path d="M 2.84375 0 L -0.046875 0 L 4.078125 -11.171875 L 6.953125 -11.171875 L 10.96875 0 L 8.09375 0 L 7.5 -1.875 L 3.4375 -1.875 Z M 5.453125 -8.421875 C 5.359375 -8.085938 5.253906 -7.734375 5.140625 -7.359375 C 5.023438 -6.984375 4.835938 -6.378906 4.578125 -5.546875 L 4.109375 -4.0625 L 6.796875 -4.0625 L 6.34375 -5.546875 C 6.1875 -5.992188 6.03125 -6.46875 5.875 -6.96875 C 5.71875 -7.476562 5.578125 -7.960938 5.453125 -8.421875 Z M 5.453125 -8.421875 "/></g></g></g><g fill="#ffffff" fill-opacity="1"><g transform="translate(265.56445, 166.532317)"><g><path d="M 7.984375 -2.578125 L 7.984375 0 L 0.859375 0 L 0.859375 -11.171875 L 3.609375 -11.171875 L 3.609375 -2.578125 Z M 7.984375 -2.578125 "/></g></g></g><g fill="#ffffff" fill-opacity="1"><g transform="translate(274.686407, 166.532317)"><g><path d="M 7.984375 -2.578125 L 7.984375 0 L 0.859375 0 L 0.859375 -11.171875 L 3.609375 -11.171875 L 3.609375 -2.578125 Z M 7.984375 -2.578125 "/></g></g></g><g fill="#ffffff" fill-opacity="1"><g transform="translate(283.808364, 166.532317)"><g><path d="M 3.609375 -11.171875 L 3.609375 0 L 0.859375 0 L 0.859375 -11.171875 Z M 3.609375 -11.171875 "/></g></g></g><g fill="#ffffff" fill-opacity="1"><g transform="translate(289.188979, 166.532317)"><g><path d="M 2.84375 0 L -0.046875 0 L 4.078125 -11.171875 L 6.953125 -11.171875 L 10.96875 0 L 8.09375 0 L 7.5 -1.875 L 3.4375 -1.875 Z M 5.453125 -8.421875 C 5.359375 -8.085938 5.253906 -7.734375 5.140625 -7.359375 C 5.023438 -6.984375 4.835938 -6.378906 4.578125 -5.546875 L 4.109375 -4.0625 L 6.796875 -4.0625 L 6.34375 -5.546875 C 6.1875 -5.992188 6.03125 -6.46875 5.875 -6.96875 C 5.71875 -7.476562 5.578125 -7.960938 5.453125 -8.421875 Z M 5.453125 -8.421875 "/></g></g></g><g fill="#ffffff" fill-opacity="1"><g transform="translate(301.054584, 166.532317)"><g><path d="M 10.484375 -11.171875 L 10.484375 0 L 7.859375 0 L 3.4375 -6.453125 L 3.4375 0 L 0.859375 0 L 0.859375 -11.171875 L 3.46875 -11.171875 L 7.90625 -4.46875 L 7.90625 -11.171875 Z M 10.484375 -11.171875 "/></g></g></g><g fill="#ffffff" fill-opacity="1"><g transform="translate(313.312144, 166.532317)"><g><path d="M 5.703125 -2.40625 C 6.171875 -2.40625 6.6875 -2.453125 7.25 -2.546875 C 7.8125 -2.648438 8.3125 -2.785156 8.75 -2.953125 L 8.75 -0.515625 C 8.09375 -0.253906 7.503906 -0.078125 6.984375 0.015625 C 6.460938 0.117188 5.914062 0.171875 5.34375 0.171875 C 4.3125 0.171875 3.484375 0.0546875 2.859375 -0.171875 C 2.242188 -0.410156 1.753906 -0.789062 1.390625 -1.3125 C 1.078125 -1.769531 0.847656 -2.347656 0.703125 -3.046875 C 0.554688 -3.742188 0.484375 -4.59375 0.484375 -5.59375 C 0.484375 -7.582031 0.910156 -9.035156 1.765625 -9.953125 C 2.628906 -10.878906 4 -11.34375 5.875 -11.34375 C 6.425781 -11.34375 6.914062 -11.332031 7.34375 -11.3125 C 7.769531 -11.289062 8.15625 -11.25 8.5 -11.1875 L 8.5 -8.78125 C 8.101562 -8.800781 7.691406 -8.816406 7.265625 -8.828125 C 6.847656 -8.847656 6.382812 -8.859375 5.875 -8.859375 C 5.21875 -8.859375 4.734375 -8.796875 4.421875 -8.671875 C 4.109375 -8.546875 3.875 -8.328125 3.71875 -8.015625 C 3.582031 -7.773438 3.484375 -7.457031 3.421875 -7.0625 C 3.359375 -6.675781 3.328125 -6.1875 3.328125 -5.59375 C 3.328125 -5.03125 3.351562 -4.5625 3.40625 -4.1875 C 3.457031 -3.820312 3.546875 -3.515625 3.671875 -3.265625 C 3.828125 -2.953125 4.050781 -2.726562 4.34375 -2.59375 C 4.644531 -2.46875 5.097656 -2.40625 5.703125 -2.40625 Z M 5.703125 -2.40625 "/></g></g></g><g fill="#ffffff" fill-opacity="1"><g transform="translate(323.271447, 166.532317)"><g><path d="M 8.546875 -2.578125 L 8.546875 0 L 0.859375 0 L 0.859375 -11.171875 L 8.390625 -11.171875 L 8.390625 -8.671875 L 3.609375 -8.671875 L 3.609375 -6.828125 L 7.734375 -6.828125 L 7.734375 -4.5 L 3.609375 -4.5 L 3.609375 -2.578125 Z M 8.546875 -2.578125 "/></g></g></g><g fill="#ffffff" fill-opacity="1"><g transform="translate(45.137915, 211.297832)"><g><path d="M 99.34375 -1.898438 L 51.253906 -125.605469 C 50.78125 -126.871094 48.566406 -126.871094 48.089844 -125.605469 L 0.15625 -1.898438 C -0.316406 -0.949219 0.316406 0 1.738281 0 L 23.414062 0 C 24.046875 0 24.835938 -0.316406 24.996094 -0.949219 L 49.671875 -71.503906 L 74.667969 -0.949219 C 74.824219 -0.316406 75.617188 0 76.089844 0 L 97.921875 0 C 99.027344 0 99.820312 -0.949219 99.34375 -1.898438 Z M 99.34375 -1.898438 "/></g></g></g></svg>